<?xml version="1.0" encoding="UTF-8" standalone="no"?>
<!-- Created with Inkscape (http://www.inkscape.org/) -->

<svg
   xmlns:dc="http://purl.org/dc/elements/1.1/"
   xmlns:cc="http://creativecommons.org/ns#"
   xmlns:rdf="http://www.w3.org/1999/02/22-rdf-syntax-ns#"
   xmlns:svg="http://www.w3.org/2000/svg"
   xmlns="http://www.w3.org/2000/svg"
   xmlns:sodipodi="http://sodipodi.sourceforge.net/DTD/sodipodi-0.dtd"
   xmlns:inkscape="http://www.inkscape.org/namespaces/inkscape"
   width="231.75179mm"
   height="53.229595mm"
   viewBox="0 0 231.75179 53.229595"
   version="1.1"
   id="svg4671"
   inkscape:version="0.92.1 r15371"
   sodipodi:docname="footerbackground.svg">
  <defs
     id="defs4665" />
  <sodipodi:namedview
     id="base"
     pagecolor="#ffffff"
     bordercolor="#666666"
     borderopacity="1.0"
     inkscape:pageopacity="0"
     inkscape:pageshadow="2"
     inkscape:zoom="0.7"
     inkscape:cx="443.88868"
     inkscape:cy="87.994293"
     inkscape:document-units="mm"
     inkscape:current-layer="layer1"
     showgrid="false"
     inkscape:window-width="1337"
     inkscape:window-height="750"
     inkscape:window-x="29"
     inkscape:window-y="18"
     inkscape:window-maximized="1"
     showguides="true"
     inkscape:pagecheckerboard="false" />
  <metadata
     id="metadata4668">
    <rdf:RDF>
      <cc:Work
         rdf:about="">
        <dc:format>image/svg+xml</dc:format>
        <dc:type
           rdf:resource="http://purl.org/dc/dcmitype/StillImage" />
        <dc:title></dc:title>
      </cc:Work>
    </rdf:RDF>
  </metadata>
  <g
     inkscape:groupmode="layer"
     id="layer2"
     inkscape:label="Capa 2">
    <rect
       style="opacity:1;fill:#000000;fill-opacity:1;stroke:#008000;stroke-width:0.26458332;paint-order:markers fill stroke"
       id="rect6318"
       width="259.66965"
       height="71.4375"
       x="-13.229169"
       y="-8.0025482" />
  </g>
  <g
     inkscape:label="Capa 1"
     inkscape:groupmode="layer"
     id="layer1"
     transform="translate(13.822319,-12.60544)">
    <path
       d="m 89.824352,53.252159 -0.0554,0.013 v -0.18768 h 0.0554 z m -7.410444,-1.03293 h -0.296333 v -0.19544 h 0.296333 z m 0,0.26881 -0.296333,-0.17286 v -0.0219 h 0.296333 z m -1.3462,-0.26881 h -0.324556 v -0.19544 h 0.324556 z m 0,0.12382 -0.324556,0.18768 v -0.23742 h 0.324556 z m -27.47927,-0.28434 0.13617,-0.20355 0.08396,-0.004 z M 52.82679,34.776819 h -0.138642 v -0.455085 h 0.138642 z m -3.278717,0 h -0.198967 v -0.455085 h 0.198967 z m -18.776595,10.21538 -0.202849,-0.0159 -0.0013,-0.16016 h 0.204236 z m -0.668163,-1.46226 h -0.221896 l -0.0046,-0.4819 h 0.28434 z m -0.780344,-2.32939 h -0.337256 l -0.06279,-0.41028 h 0.40005 z m 0,0.38347 h -0.2794 l -0.04692,-0.30763 h 0.326318 z m -4.255206,-0.38347 h -0.334434 v -0.41028 h 0.401109 z m -0.05785,0.38347 h -0.27658 v -0.30763 h 0.322792 z m -0.837852,1.94592 h -0.220485 l -0.05927,-0.4819 h 0.283985 z m -0.686152,1.44639 -0.203907,0.0159 v -0.17604 h 0.207082 z m 185.986909,-0.49989 -5.18901,0.75389 v 0.70661 l -6.6414,-1.4605 h -9.56839 v -0.61277 l -2.34915,-0.32844 v -1.83762 l -0.3623,-0.21202 v -8.033805 h 0.76906 v -0.61207 h -0.40676 v -0.518936 h -1.70109 v -4.333522 l 0.34255,-0.20073 v -0.364067 h -1.23261 v -0.235303 h -0.56727 v -3.769783 h 0.52705 V 22.49874 l 0.22119,-0.128764 v -0.390172 h -0.9652 V 20.00954 h -0.17286 c -0.29562,-0.748242 -1.12994,-1.352903 -2.2098,-1.615017 v -0.700969 h 0.48719 v -0.353131 h -0.40569 v -0.376766 h -0.50306 l -0.85302,-4.358217 -0.85654,4.358217 h -0.50377 v 0.376766 h -0.40499 v 0.353131 h 0.48648 v 0.7366 c -1.01565,0.277989 -1.79423,0.86113 -2.0768,1.579386 h -0.17004 v 1.970264 h -1.01036 v 0.390172 l 0.2226,0.128764 v 0.918633 h 0.52847 v 3.769783 h -0.56621 v 0.235303 h -1.23613 v 0.364067 l 0.34325,0.20073 v 4.333522 h -1.70215 v 0.518936 h -0.40711 v 0.61207 h 0.77364 v 8.033805 l -0.36653,0.21202 v 1.83762 l -3.20323,0.56445 v 0.37676 l 1.7593,0.26705 0.0205,4.44926 h -10.293 v -0.84385 h -0.40817 v 0.84385 h -3.53307 v -0.23884 h -0.89041 v 0.23884 h -0.29774 l -3.71898,2.27718 v -0.0293 h -2.75202 v 0.18838 h -2.16712 l -0.75036,1.37231 h -0.25294 c 0,0 -0.36089,-0.37359 -0.95673,-0.33091 0,0 -0.54927,0.0621 -0.92886,0.32562 h -0.29704 l -1.45027,1.1885 h -1.04317 v 0.23777 h -0.37077 v -3.02577 h -0.26176 v 3.02577 h -2.15476 v -0.51928 l 0.25929,-0.15064 -2.67758,-1.2446 v -1.17545 h -0.66852 v 0.65934 l -0.29633,-0.15487 v -0.56974 h -0.44415 v 0.33514 l -3.15242,-1.65347 -2.25919,-0.3235 -14.50058,0.0921 v -0.12488 h -0.58349 v -0.22719 h -2.927 v 0.22719 h -1.9237 v 0.16016 l -2.79329,0.0173 -6.637518,2.12337 v 0.16228 h 0.30939 v 0.74683 h -0.92216 v 0.63147 h -0.83361 v 0.1457 h 0.19297 v 1.8161 l -1.64395,0.0317 -2.00942,1.79987 h 0.30762 v 1.02235 h -1.84044 v -2.44863 h 0.28046 v -0.13053 h -0.28046 v -0.77787 l -0.75247,-0.34925 v -0.81703 l -0.12242,-0.006 c 0.20849,-0.0198 0.36865,-0.12595 0.36865,-0.254 0,-0.14323 -0.19791,-0.26035 -0.4445,-0.26035 h -0.13934 v -0.48543 h 0.0134 c 0.10513,0 0.19685,-0.0511 0.19685,-0.11359 0,-0.0635 -0.0917,-0.11289 -0.19685,-0.11289 h -0.16122 l -0.0885,-2.20557 -0.0896,2.20557 h -0.16369 c -0.1076,0 -0.19191,0.0494 -0.19191,0.11289 0,0.0624 0.0843,0.11359 0.19191,0.11359 h 0.0187 v 0.48543 h -0.14217 c -0.24518,0 -0.44521,0.11712 -0.44521,0.26035 0,0.0928 0.0811,0.17356 0.20955,0.21942 h -0.0141 l -0.0127,0.95568 -0.37465,0.18521 v -0.47131 c 0.12947,-0.0353 0.22084,-0.11184 0.22084,-0.20074 0,-0.12065 -0.16545,-0.21801 -0.37782,-0.21801 h -0.0963 v -0.36091 c 0.13194,-0.0286 0.22507,-0.0892 0.22507,-0.15804 0,-0.0885 -0.14605,-0.16087 -0.33479,-0.17533 v -0.16475 h 0.22155 v -0.13017 h -0.22155 v -0.42122 h -0.22366 v 0.42122 h -0.222947 v 0.13017 h -0.084 v -0.35701 h -0.0504 c 0.0455,-0.0261 0.0734,-0.0593 0.0504,-0.1136 h 0.0289 c -0.15839,-0.0677 -0.14781,-0.28469 -0.19402,-0.3877 -0.0236,-0.0448 -0.0744,-0.11783 -0.0568,-0.16369 0.0257,-0.0808 0.1143,-0.0709 0.13899,-0.12947 0.0681,-0.14534 -0.0247,-0.23459 0.13794,-0.36089 0.097,-0.0741 0.15487,-0.0536 0.1965,-0.15699 0.025,-0.0653 0,-0.16016 -0.007,-0.22542 -0.14887,0.024 -0.17039,0.14005 -0.29951,0.1905 -0.12982,0.0504 -0.29033,-0.0356 -0.28469,0.1136 -0.23283,-0.0441 -0.0127,-0.26812 -0.32843,-0.22578 -0.20462,0.0279 -0.13406,0.18168 -0.14535,0.29033 -0.0328,0 -0.0681,0.005 -0.10195,0.005 -0.0124,0.14217 -0.0219,0.67346 -0.2794,0.64876 0.0293,0.1143 -0.12171,0.18274 -0.16369,0.28928 -0.0441,0.11289 -0.0222,0.28822 0.002,0.40181 l 0.0744,0.003 v 0.39265 l -2.073631,-0.23848 c 0.07161,-0.061 0.110418,-0.13265 0.110418,-0.21096 0,-0.20991 -0.293158,-0.38136 -0.655108,-0.38136 h -0.0441 v -0.40993 c 0.09701,-0.0187 0.168629,-0.0709 0.168629,-0.13229 0,-0.0758 -0.106188,-0.13758 -0.236363,-0.13758 h -0.117475 l -0.07655,-2.01083 -0.08008,2.01083 h -0.116062 c -0.13053,0 -0.236715,0.0617 -0.236715,0.13758 0,0.0614 0.07197,0.1136 0.165807,0.13229 v 0.40993 h -0.04198 c -0.362656,0 -0.65264,0.17145 -0.65264,0.38136 v 0.003 l -1.470025,-0.16934 v -0.11783 h -0.294568 v -0.26423 h 0.202142 v -0.0741 h -0.202142 v -0.19544 h 0.03634 v -0.066 h -0.03634 v -0.30056 h -0.17145 v 0.30056 h -0.289277 l 0.0011,-0.0102 c 0,-0.13299 -0.143229,-0.24412 -0.346429,-0.28645 v -0.33334 c 0.178506,0.0113 0.360188,0.0353 0.542573,0.0268 -0.156282,-0.0268 -0.505177,-0.0395 -0.58561,-0.14076 -0.05503,-0.0702 0.0011,-0.23142 0.0011,-0.30833 0,-0.0699 -0.05609,-0.25082 -0.0011,-0.30762 0.09419,-0.0974 0.310091,-0.0642 0.499885,-0.0656 l 0.0088,-0.0963 c 0.109008,0.0148 0.188737,0.002 0.185914,-0.0639 -0.24271,-0.007 -0.465666,0.005 -0.664281,0.0469 l 0.109715,0.0317 c -0.06068,0.009 -0.153107,0 -0.215548,-0.002 0.0074,-0.10653 0.0074,-0.25188 -0.253646,-0.20567 -0.0021,0.0568 -0.006,0.11748 -0.0095,0.17322 -0.173215,0.007 -0.206375,-0.0769 -0.355954,-0.11148 -0.12065,-0.0272 -0.282575,-0.0169 -0.414513,-0.0127 -0.03598,0.16087 0.204259,0.12771 0.385586,0.14429 0.275518,0.0219 0.276931,0.049 0.276931,0.21025 0.0028,0.2279 0.254,0.37888 0.22225,0.61207 -0.04551,0.012 -0.07161,0.0307 -0.08008,0.0522 h -0.02045 v 0.35066 c -0.200379,0.0423 -0.346429,0.15346 -0.346429,0.28646 l 0.0028,0.0102 H 80.74308 v -0.30054 h -0.168275 v 0.56198 h -0.201083 v 0.0741 h 0.201083 v 0.27093 h -0.442028 v 0.19438 H 66.224866 l -2.585156,-2.41053 v -0.35524 h -0.28716 v -0.11995 h -0.09419 v 0.11995 h -0.243065 v -0.11995 h -0.09207 v 0.11995 h -0.243416 v -0.11995 h -0.09384 v 0.11995 h -0.2413 v -0.11995 h -0.09384 v 0.11995 h -0.243772 v -0.11995 h -0.09243 v 0.11995 H 61.6698 v -0.11995 h -0.08996 v 0.11995 h -0.245888 v -0.11995 h -0.08925 v 0.11995 h -0.243769 v -0.11995 h -0.09419 v 0.11995 h -0.242358 v -0.11995 h -0.09207 v 0.11995 h -0.243771 v -0.11995 h -0.09454 v 0.11995 h -0.242369 v -0.11995 h -0.09207 v 0.11995 h -0.243769 v -0.11995 h -0.09278 v 0.11995 h -0.242007 v -0.11995 h -0.09313 v 0.11995 h -0.242004 v -0.11995 h -0.09596 v 0.11995 h -0.2413 v -0.11995 h -0.09349 v 0.11995 h -0.242007 v -0.11995 h -0.09278 v 0.11995 h -0.242004 v -0.11995 h -0.09561 v 0.11995 h -0.240589 v -0.11995 h -0.09454 v 0.11995 h -0.244829 v -0.11995 h -0.08996 v 0.11995 H 56.96939 v -0.11995 h -0.09313 v 0.11995 h -0.243416 v -0.11995 h -0.09207 v 0.11995 h -0.244121 v -0.11995 h -0.09313 v 0.11995 h -0.202848 v -1.40582 l 0.448027,-0.36654 v -0.19544 h -0.158044 v -0.17709 h -0.124883 v -0.19333 l 0.09596,-0.0568 v -0.15381 h -0.09596 v -0.13017 h -0.224719 v -2.38127 l 0.642761,-0.48718 0.09701,-0.0561 h -0.306224 v -0.14711 h -0.490008 v -0.38841 l -0.108654,-0.0642 v -0.41451 h 0.262819 v -0.2099 h -0.432152 v -0.19474 l 0.224719,-0.2032 -0.04339,-0.0325 -0.168275,0.097 -0.724252,-2.83668 h -0.195088 l -0.06808,-1.18287 h -0.08432 l -0.09948,1.17475 h -0.1397 v 0.24087 l -0.923571,-1.87149 v -1.23401 l 0.379942,-0.32597 h -0.379942 v -0.31221 h 0.159809 v -0.20567 h -0.159809 v -0.96061 l 0.379942,-0.32562 h -0.379942 v -0.21554 h -0.09419 v -0.455085 h 0.242003 v -0.237772 h -0.2794 v -0.161925 h 0.115359 v -0.03704 h -0.115359 v -0.02787 h -0.02045 l -0.02468,-0.118533 h 0.160512 v -0.03739 h -0.166511 l -0.02469,-0.151695 h 0.191204 v -0.0381 h -0.202494 l -0.02294,-0.134761 h 0.157339 v -0.03775 h -0.1651 l -0.02469,-0.135467 h 0.156633 v -0.03739 h -0.162631 l -0.04586,-0.253647 -0.04657,0.253647 h -0.16369 v 0.03739 h 0.156282 l -0.02328,0.135467 h -0.16369 v 0.03775 h 0.156634 l -0.0254,0.134761 H 52.74737 v 0.0381 h 0.197202 l -0.0321,0.151695 h -0.1651 v 0.03739 h 0.159102 l -0.01976,0.118533 h -0.02469 v 0.02787 h -0.114652 v 0.03704 h 0.114652 v 0.161925 h -0.243769 c -0.09137,-0.176037 -0.265289,-0.332317 -0.505883,-0.446617 v -1.650647 h 0.426157 v -0.225425 h -0.472724 v -0.3556 l 0.0032,-0.02752 c 0,-0.208492 -0.198966,-0.390525 -0.497416,-0.483658 v -0.344664 h 0.03775 c 0.17286,0 0.307268,-0.07937 0.307268,-0.177447 0,-0.09842 -0.134408,-0.178859 -0.307268,-0.178859 h -0.139348 v -0.339372 h 0.168275 v -0.09208 h -0.18274 l -0.01304,-0.131586 h 0.175683 v -0.09243 h -0.184502 l -0.01516,-0.129822 h 0.182388 v -0.09278 h -0.191559 l -0.01304,-0.131233 h 0.186974 v -0.09313 h -0.198655 l -0.01304,-0.129822 h 0.194027 v -0.09208 h -0.202494 l -0.01304,-0.131939 h 0.195085 v -0.09243 H 51.34266 L 51.32679,28.51492 h 0.201435 v -0.09207 h -0.210256 l -0.0127,-0.131233 h 0.202496 v -0.09066 H 51.29926 L 51.28338,28.06867 h 0.207079 V 27.9766 h -0.218721 l -0.01024,-0.131587 h 0.211315 v -0.09102 H 51.25268 l -0.01587,-0.131586 h 0.21872 v -0.09278 h -0.230362 l -0.0095,-0.131233 h 0.219427 v -0.09207 h -0.228952 l -0.05962,-0.565503 c 0.186973,-0.01658 0.330906,-0.109361 0.330906,-0.222603 0,-0.125236 -0.173567,-0.226483 -0.389818,-0.226483 -0.216255,0 -0.391584,0.101247 -0.391584,0.226483 0,0.125236 0.175329,0.226131 0.391584,0.226131 h 0.0011 l -0.05927,0.561975 h -0.231775 v 0.09207 h 0.225777 l -0.0141,0.131233 h -0.226484 v 0.09278 h 0.213429 l -0.01304,0.131586 h -0.220485 v 0.09102 H 50.97725 L 50.96278,27.9766 h -0.220134 v 0.09207 h 0.209902 l -0.0127,0.132291 H 50.72783 v 0.09066 h 0.200025 l -0.0095,0.131233 H 50.70729 v 0.09207 h 0.200025 l -0.01447,0.130881 h -0.202496 v 0.09243 h 0.196146 l -0.01341,0.131939 h -0.203552 v 0.09208 h 0.194733 l -0.01622,0.129822 h -0.195792 v 0.09313 h 0.187325 l -0.0099,0.131233 h -0.197556 v 0.09278 h 0.185915 l -0.01341,0.129822 h -0.18697 v 0.09243 h 0.175683 l -0.01058,0.131586 h -0.188383 v 0.09208 h 0.17145 v 0.339372 h -0.1397 c -0.169334,0 -0.306565,0.08043 -0.306565,0.178859 0,0.09807 0.137231,0.177447 0.306565,0.177447 h 0.03493 v 0.344664 c -0.29563,0.09313 -0.494242,0.275166 -0.494242,0.483658 l 0.0032,0.02752 v 0.3556 h -0.474488 v 0.225425 h 0.427921 v 1.650647 c -0.262115,0.126294 -0.451908,0.300214 -0.53199,0.500592 v -0.05397 H 49.31347 v -0.161925 h 0.116771 v -0.03704 H 49.31347 v -0.02787 h -0.02222 l -0.02294,-0.118533 h 0.161925 v -0.03739 h -0.169688 l -0.02434,-0.151695 h 0.194029 v -0.0381 h -0.202848 l -0.02434,-0.134761 h 0.156281 v -0.03775 h -0.161925 l -0.02681,-0.135467 h 0.156633 V 33.16703 H 49.16354 l -0.04621,-0.253647 -0.04621,0.253647 h -0.162629 v 0.03739 h 0.156633 l -0.02363,0.135467 h -0.16651 v 0.03775 h 0.158043 l -0.02611,0.134761 h -0.198615 v 0.0381 h 0.191559 l -0.02612,0.151695 h -0.165452 v 0.03739 h 0.159457 l -0.01976,0.118533 h -0.02506 v 0.02787 h -0.114652 v 0.03704 h 0.114652 v 0.161925 h -0.279752 v 0.237772 h 0.242359 v 0.455086 h -0.03387 v 0.21554 h -0.381 l 0.381,0.32562 v 0.96061 H 48.69077 v 0.20567 h 0.160867 v 0.31221 h -0.381 l 0.381,0.32597 v 1.10772 l -0.06385,-0.001 -0.815975,2.20556 -0.04621,-0.14746 v -0.29987 h -0.13759 l -0.100542,-1.17475 h -0.08149 l -0.07015,1.18286 h -0.195791 l -0.726723,2.83668 -0.164748,-0.097 -0.04374,0.0325 0.224719,0.2032 v 0.19474 h -0.432152 v 0.2099 h 0.262466 v 0.41451 l -0.110418,0.0642 v 0.38841 h -0.488598 v 0.14711 h -0.308327 l 0.09948,0.0561 0.642408,0.48719 v 2.38126 h -0.226131 v 0.13018 h -0.09702 v 0.15381 l 0.09702,0.0568 v 0.19332 h -0.123119 v 0.1771 h -0.161221 v 0.19543 l 0.45085,0.36654 v 1.64218 h -6.558491 l -4.756854,0.23848 v 1.2961 h 0.815975 v 0.73519 h -0.96379 v 0.34573 h 0.96379 v 0.21519 h -3.940527 v -0.91793 l 0.169333,-0.0984 v -0.3115 h -0.131588 v -0.78881 h -0.204258 v -2.7559 l 0.186973,-0.25965 h 0.29704 v -0.0748 H 31.77619 v -0.31362 h 0.281165 v -0.15204 h -0.669574 v -1.12325 h 0.444852 v -0.11994 h -0.471662 l -0.11924,-0.54506 h 0.267759 v -0.0921 h -0.299157 l -0.166158,-0.47167 v -0.21907 h 0.242358 v -0.0921 h -0.242358 v -0.0974 H 30.77148 v 0.0974 h -0.204259 l -0.0032,-0.1905 h 0.320321 v -0.14076 h -0.322086 l -0.0113,-0.75988 h 0.275521 v -0.10302 h -0.351015 l -0.05609,-0.4819 h 0.140406 v -0.0981 H 30.40775 l -0.07726,-0.65228 h 0.1524 v -0.0656 h -0.160515 l -0.03069,-0.25259 -0.03316,0.25259 h -0.164037 v 0.0656 h 0.156282 l -0.07655,0.65228 h -0.300212 l -0.01304,-1.36595 h -0.127352 v -0.91334 h -0.829381 l -0.05962,-0.38383 h 0.402873 v -0.0529 h -0.409929 l -0.05644,-0.37253 h 0.398285 v -0.054 h -0.406045 l -0.05927,-0.37183 h 0.398637 v -0.055 h -0.407458 l -0.05503,-0.37253 h 0.393348 v -0.0536 h -0.401815 l -0.05821,-0.37077 h 0.393348 v -0.055 h -0.40146 l -0.05715,-0.37147 h 0.390525 v -0.055 h -0.40005 l -0.05221,-0.37148 h 0.384175 v -0.055 h -0.395817 l -0.05644,-0.37077 h 0.384882 v -0.054 h -0.394055 l -0.05785,-0.37218 h 0.381351 v -0.0554 h -0.390173 l -0.05503,-0.37077 h 0.377473 v -0.0533 h -0.386315 l -0.05786,-0.37253 h 0.376415 v -0.054 h -0.384882 l -0.05715,-0.37254 h 0.37465 v -0.0533 h -0.381703 l -0.05645,-0.37218 h 0.370065 v -0.0543 h -0.380293 l -0.05645,-0.37218 h 0.365832 v -0.0543 h -0.374298 l -0.05821,-0.372177 h 0.36689 v -0.05433 h -0.372885 l -0.05821,-0.370417 h 0.362653 v -0.05574 h -0.37112 l -0.05645,-0.372533 h 0.359833 v -0.05398 h -0.369358 l -0.0575,-0.370769 h 0.35701 v -0.05398 h -0.363712 l -0.05962,-0.372181 h 0.358423 v -0.05433 h -0.364419 l -0.0575,-0.372533 h 0.353483 v -0.05397 h -0.362302 l -0.05539,-0.370417 h 0.346779 v -0.05609 h -0.355231 l -0.05927,-0.370417 h 0.347837 v -0.05503 H 27.463126 L 27.35306,30.579498 h 0.205316 v -0.154517 h -0.327379 v -0.218016 h 0.252589 v -0.220134 h -0.367241 l -0.06491,-0.988483 h 0.334433 v -0.06315 h -0.34149 l -0.01482,-0.245533 h -0.05786 l -0.01341,0.245533 h -0.326322 v 0.06315 h 0.323499 l -0.05644,0.988483 h -0.364067 v 0.220134 h 0.249767 v 0.218016 h -0.32808 v 0.154517 h 0.243768 l -0.110066,0.706967 H 26.23898 v 0.05503 h 0.342193 l -0.05468,0.370417 H 26.16807 v 0.05609 h 0.349601 l -0.05821,0.368967 h -0.359479 v 0.05397 h 0.351367 l -0.05856,0.372533 h -0.359127 v 0.05433 h 0.353835 l -0.0575,0.372181 h -0.366184 v 0.05398 h 0.35701 l -0.05644,0.370769 h -0.367242 v 0.05398 H 26.2538 l -0.05609,0.372533 h -0.3683 v 0.05574 h 0.360892 l -0.05644,0.370417 h -0.372897 v 0.05433 h 0.364067 l -0.05785,0.372177 h -0.37465 v 0.0543 h 0.365829 l -0.05503,0.37218 H 25.62339 v 0.0543 h 0.372181 l -0.05892,0.37218 H 25.5553 v 0.0533 h 0.375001 l -0.05891,0.37254 h -0.384529 v 0.054 h 0.375356 l -0.05503,0.37253 H 25.42019 v 0.0533 h 0.379941 l -0.05962,0.37077 h -0.389819 v 0.0554 h 0.381704 l -0.05539,0.37218 h -0.394052 v 0.054 h 0.382058 l -0.05503,0.37077 h -0.394055 v 0.055 h 0.38594 l -0.05644,0.37148 H 25.14467 v 0.055 h 0.391584 l -0.05644,0.37147 h -0.39864 v 0.055 h 0.392994 l -0.05927,0.37077 h -0.404987 v 0.0536 h 0.395817 l -0.05786,0.37253 h -0.403225 v 0.055 h 0.394407 l -0.05609,0.37183 h -0.409575 v 0.054 h 0.404987 l -0.06103,0.37253 h -0.411697 v 0.0529 h 0.40287 l -0.05927,0.38383 h -0.826558 v 0.91334 H 24.19216 l -0.01588,1.36595 h -0.293158 l -0.08078,-0.65228 h 0.157691 v -0.0656 h -0.1651 l -0.03034,-0.25259 -0.03069,0.25259 h -0.163335 v 0.0656 h 0.156278 l -0.07973,0.65228 h -0.149225 v 0.0981 h 0.139348 l -0.05821,0.4819 h -0.354896 v 0.10301 h 0.278342 l -0.0092,0.75988 h -0.324557 v 0.14076 H 23.4901 v 0.1905 h -0.20814 v -0.0974 h -0.2667 v 0.0974 h -0.243769 v 0.0921 h 0.243769 v 0.21908 l -0.17145,0.47166 h -0.29704 v 0.0921 h 0.267055 l -0.121709,0.54506 h -0.470254 v 0.11995 h 0.446265 v 1.12324 h -0.667809 v 0.15205 h 0.276577 v 0.31362 H 21.94211 v 0.0748 h 0.298802 l 0.186973,0.25964 v 2.7559 h -0.206023 v 0.78881 h -0.129117 v 0.31151 l 0.165807,0.0984 v 0.91792 h -1.119717 v -0.0307 h -0.1524 v -0.0279 h -0.325967 v -0.1972 h 0.219075 v -0.10195 h -0.219075 v -0.57574 H 20.51971 v 0.57574 h -0.189794 v 0.10195 h 0.189794 v 0.1972 h -0.291394 v -0.46461 h 0.181327 v -0.12382 h -0.181327 v -0.0194 c 0,-0.11677 -0.134762,-0.21484 -0.3175,-0.24871 l -0.131939,-1.20685 -0.134409,1.20685 c -0.182739,0.0335 -0.320675,0.13194 -0.320675,0.24871 v 0.0194 h -0.180975 v 0.12382 h 0.180975 v 0.46461 h -0.374298 v -0.1972 h 0.229307 v -0.10195 h -0.229307 v -0.57574 h -0.138641 v 0.57574 h -0.181327 v 0.10195 h 0.181327 v 0.1972 H 18.5498 v 0.0279 h -0.136525 v 0.15593 H 18.5498 v 0.18838 h -0.250825 v 0.10337 H 18.5498 v 0.3302 h -0.325967 v 0.23742 H 18.5498 v 0.79904 h -4.153604 v 0.1785 h -0.58561 v 0.14605 h 0.304448 v 0.24307 h -0.499182 v -0.0963 h -0.253267 v 0.17744 h 0.504118 v 3.21205 H 6.6037349 l -3.352447,-5.05671 h -8.2133703 l -0.9172231,1.09961 v -1.50812 h -0.271356 l -0.161925,-0.94157 h -0.486022 l -1.836667,-7.16211 -3.1344665,7.41435 h -0.917787 v 3.54824 h -0.756814 v 9.73701 H 218.30743 v -21.35859 h -8.83461"
       style="fill:#ff5722;fill-opacity:0.25595239;fill-rule:nonzero;stroke:none;stroke-width:0.03527778"
       id="path94"
       inkscape:connector-curvature="0" />
  </g>
</svg>
